<svg xmlns="http://www.w3.org/2000/svg" viewBox="0 0 171.66 58.93"><defs><style>.cls-1{isolation:isolate;}.cls-11,.cls-2{fill:#27adff;}.cls-2,.cls-3{mix-blend-mode:multiply;}.cls-12,.cls-3{fill:#401fff;}.cls-4{fill:#33f5ff;}.cls-5{fill:#9ba3af;}.cls-6{fill:#1f70ff;}.cls-7{fill:#9761ff;}.cls-8{fill:#1a1aff;}.cls-9{fill:#5050ff;}.cls-10{fill:#24cbff;}</style></defs><title>dlcm-logo</title><g class="cls-1"><g id="Text"><path class="cls-2" d="M7.51,52.47a0.8,0.8,0,0,1-.61-1.32L18.78,37.28a0.8,0.8,0,1,1,1.21,1L8.12,52.2A0.8,0.8,0,0,1,7.51,52.47Z"/><path class="cls-3" d="M48.68,30.82H35.89a0.8,0.8,0,0,1,0-1.6H48.68A0.8,0.8,0,0,1,48.68,30.82Z"/><rect class="cls-4" x="12.69" y="5.92" width="1.6" height="18.56" transform="translate(-6.65 12.43) rotate(-40.57)"/><path class="cls-5" d="M84.78,41.68H77a0.48,0.48,0,0,1-.48-0.48v-22A0.48,0.48,0,0,1,77,18.68h7.77C92.1,18.68,97,23.2,97,30.18S92.1,41.68,84.78,41.68Zm-5.1-20.13V38.81h4.87c5.25,0,9.24-3.14,9.24-8.63s-4-8.63-9.24-8.63H79.68Z"/><path class="cls-5" d="M103.37,41.2v-22a0.48,0.48,0,0,1,.48-0.48H106a0.48,0.48,0,0,1,.48.48V38.81h12.67a0.48,0.48,0,0,1,.48.48V41.2a0.48,0.48,0,0,1-.48.48H103.85A0.48,0.48,0,0,1,103.37,41.2Z"/><path class="cls-5" d="M142.27,39a0.47,0.47,0,0,1-.05.63,11.41,11.41,0,0,1-7.71,2.62,11.65,11.65,0,0,1-12-12,11.64,11.64,0,0,1,12-12,11.33,11.33,0,0,1,7.72,2.62,0.47,0.47,0,0,1,.05.63L141,23.13a0.47,0.47,0,0,1-.68.1,9.5,9.5,0,0,0-5.8-2.06,8.74,8.74,0,0,0-8.86,9,8.73,8.73,0,0,0,8.86,9,9.24,9.24,0,0,0,5.8-2,0.47,0.47,0,0,1,.68.09Z"/><path class="cls-5" d="M168.51,23.64L160.73,32h-0.84l-7.78-8.28V41.2a0.48,0.48,0,0,1-.48.48h-2.19A0.48,0.48,0,0,1,149,41.2V19.14a0.48,0.48,0,0,1,.48-0.48h1.8a0.48,0.48,0,0,1,.34.15l8.73,9,8.77-9a0.48,0.48,0,0,1,.34-0.15h1.76a0.48,0.48,0,0,1,.48.48V41.2a0.48,0.48,0,0,1-.48.48H169a0.48,0.48,0,0,1-.48-0.48V23.64Z"/><path class="cls-6" d="M25.84,58.76a4.49,4.49,0,1,1,4.49-4.49A4.5,4.5,0,0,1,25.84,58.76Zm0-7.38a2.89,2.89,0,1,0,2.89,2.89A2.9,2.9,0,0,0,25.84,51.38Z"/><path class="cls-7" d="M25.84,9.48A4.49,4.49,0,1,1,30.33,5,4.5,4.5,0,0,1,25.84,9.48Zm0-7.38A2.89,2.89,0,1,0,28.73,5,2.9,2.9,0,0,0,25.84,2.09Z"/><path class="cls-8" d="M44.08,52.17a4.49,4.49,0,1,1,4.49-4.49A4.5,4.5,0,0,1,44.08,52.17Zm0-7.38A2.89,2.89,0,1,0,47,47.68,2.9,2.9,0,0,0,44.08,44.79Z"/><path class="cls-9" d="M44.08,16.79a4.49,4.49,0,1,1,4.49-4.49A4.5,4.5,0,0,1,44.08,16.79Zm0-7.38A2.89,2.89,0,1,0,47,12.3,2.9,2.9,0,0,0,44.08,9.4Z"/><path class="cls-10" d="M5.18,34.54A4.49,4.49,0,1,1,9.67,30,4.5,4.5,0,0,1,5.18,34.54Zm0-7.38A2.89,2.89,0,1,0,8.07,30,2.9,2.9,0,0,0,5.18,27.15Z"/><path class="cls-4" d="M5.14,9.73A4.49,4.49,0,1,1,9.64,5.24,4.5,4.5,0,0,1,5.14,9.73Zm0-7.38A2.89,2.89,0,1,0,8,5.24,2.9,2.9,0,0,0,5.14,2.35Z"/><path class="cls-11" d="M5,58.93a4.49,4.49,0,1,1,4.49-4.49A4.5,4.5,0,0,1,5,58.93Zm0-7.38a2.89,2.89,0,1,0,2.89,2.89A2.9,2.9,0,0,0,5,51.54Z"/><path class="cls-12" d="M52.37,34.54A4.49,4.49,0,1,1,56.86,30,4.5,4.5,0,0,1,52.37,34.54Zm0-7.38A2.89,2.89,0,1,0,55.26,30,2.9,2.9,0,0,0,52.37,27.15Z"/><path class="cls-5" d="M25.84,40.93A10.85,10.85,0,1,1,36.69,30.07,10.86,10.86,0,0,1,25.84,40.93Zm0-20.11a9.26,9.26,0,1,0,9.26,9.26A9.27,9.27,0,0,0,25.84,20.82Z"/></g></g></svg>